<mxfile host="app.diagrams.net" modified="2024-07-20T13:01:15.136Z" agent="Mozilla/5.0 (Windows NT 10.0; Win64; x64) AppleWebKit/537.36 (KHTML, like Gecko) Chrome/126.0.0.0 Safari/537.36 Edg/126.0.0.0" version="24.5.4" etag="Mslep8uJKP4Z_vDfHqYo" type="github">
  <diagram name="第1頁" id="mjrKI-LqTaSNmv3whIXh">
    <mxGraphModel>
      <root>
        <mxCell id="0" />
        <mxCell id="1" parent="0" />
      </root>
    </mxGraphModel>
  </diagram>
</mxfile>
